<svg xmlns="http://www.w3.org/2000/svg" width="1200" height="300" viewBox="0 0 1200 300" role="img" aria-labelledby="t d">
<title id="t">Jiwon Shin</title><desc id="d">Full-stack and AI/ML product engineer — embedding graph art.</desc>
<defs>
  <linearGradient id="bg" x1="0" y1="0" x2="1" y2="1"><stop offset="0" stop-color="#0d1117"/><stop offset="1" stop-color="#090c12"/></linearGradient>
  <radialGradient id="gA" cx="0.72" cy="0.15" r="0.7"><stop offset="0" stop-color="#7dd3fc" stop-opacity="0.22"/><stop offset="1" stop-color="#7dd3fc" stop-opacity="0"/></radialGradient>
  <radialGradient id="gB" cx="0.95" cy="0.95" r="0.6"><stop offset="0" stop-color="#86efac" stop-opacity="0.16"/><stop offset="1" stop-color="#86efac" stop-opacity="0"/></radialGradient>
  <linearGradient id="scrim" x1="0" y1="0" x2="1" y2="0"><stop offset="0" stop-color="#0d1117" stop-opacity="1"/><stop offset="0.42" stop-color="#0d1117" stop-opacity="0.92"/><stop offset="0.72" stop-color="#0d1117" stop-opacity="0"/></linearGradient>
  <linearGradient id="name" x1="0" y1="0" x2="1" y2="0"><stop offset="0" stop-color="#e6edf3"/><stop offset="0.6" stop-color="#7dd3fc"/><stop offset="1" stop-color="#86efac"/></linearGradient>
  <filter id="glow" x="-80%" y="-80%" width="260%" height="260%"><feGaussianBlur stdDeviation="4" result="b"/><feMerge><feMergeNode in="b"/><feMergeNode in="SourceGraphic"/></feMerge></filter>
  <style>.s{font-family:'Segoe UI',Inter,ui-sans-serif,system-ui,-apple-system,sans-serif}.m{font-family:ui-monospace,'SFMono-Regular',Menlo,Consolas,monospace}</style>
</defs>
<rect width="1200" height="300" rx="20" fill="url(#bg)"/>
<rect width="1200" height="300" rx="20" fill="url(#gA)"/>
<rect width="1200" height="300" rx="20" fill="url(#gB)"/>
<g stroke-linecap="round">
<line x1="603.7" y1="137.1" x2="587.0" y2="135.1" stroke="#bda4b9" stroke-opacity="0.18" stroke-width="1"/>
<line x1="603.7" y1="137.1" x2="632.6" y2="123.1" stroke="#bda6b6" stroke-opacity="0.18" stroke-width="1"/>
<line x1="603.7" y1="137.1" x2="615.3" y2="168.7" stroke="#bda5b8" stroke-opacity="0.18" stroke-width="1"/>
<line x1="568.9" y1="134.0" x2="551.1" y2="133.0" stroke="#7ed8ef" stroke-opacity="0.18" stroke-width="1"/>
<line x1="568.9" y1="134.0" x2="587.0" y2="135.1" stroke="#7fd8ee" stroke-opacity="0.18" stroke-width="1"/>
<line x1="530.3" y1="164.6" x2="536.9" y2="142.5" stroke="#7ed6f2" stroke-opacity="0.18" stroke-width="1"/>
<line x1="530.3" y1="164.6" x2="547.4" y2="143.5" stroke="#7ed6f2" stroke-opacity="0.18" stroke-width="1"/>
<line x1="530.3" y1="164.6" x2="551.1" y2="133.0" stroke="#7ed6f1" stroke-opacity="0.18" stroke-width="1"/>
<line x1="615.3" y1="168.7" x2="587.0" y2="135.1" stroke="#7fd8ec" stroke-opacity="0.18" stroke-width="1"/>
<line x1="518.5" y1="111.3" x2="502.1" y2="136.8" stroke="#7ed6f4" stroke-opacity="0.18" stroke-width="1"/>
<line x1="518.5" y1="111.3" x2="536.9" y2="142.5" stroke="#7ed6f3" stroke-opacity="0.18" stroke-width="1"/>
<line x1="518.5" y1="111.3" x2="551.1" y2="133.0" stroke="#7ed6f2" stroke-opacity="0.18" stroke-width="1"/>
<line x1="547.4" y1="143.5" x2="536.9" y2="142.5" stroke="#7ed7f2" stroke-opacity="0.18" stroke-width="1"/>
<line x1="547.4" y1="143.5" x2="551.1" y2="133.0" stroke="#7ed7f0" stroke-opacity="0.18" stroke-width="1"/>
<line x1="536.9" y1="142.5" x2="551.1" y2="133.0" stroke="#7ed7f1" stroke-opacity="0.18" stroke-width="1"/>
<line x1="502.1" y1="136.8" x2="536.9" y2="142.5" stroke="#7ed6f4" stroke-opacity="0.18" stroke-width="1"/>
<line x1="502.1" y1="136.8" x2="530.3" y2="164.6" stroke="#7ed6f4" stroke-opacity="0.18" stroke-width="1"/>
<line x1="659.7" y1="126.2" x2="664.1" y2="105.3" stroke="#80dbe4" stroke-opacity="0.18" stroke-width="1"/>
<line x1="659.7" y1="126.2" x2="662.8" y2="99.8" stroke="#bea6b5" stroke-opacity="0.18" stroke-width="1"/>
<line x1="659.7" y1="126.2" x2="632.6" y2="123.1" stroke="#80dae6" stroke-opacity="0.18" stroke-width="1"/>
<line x1="729.1" y1="99.9" x2="687.0" y2="90.8" stroke="#80dde0" stroke-opacity="0.18" stroke-width="1"/>
<line x1="729.1" y1="99.9" x2="689.2" y2="61.6" stroke="#80dde0" stroke-opacity="0.18" stroke-width="1"/>
<line x1="729.1" y1="99.9" x2="740.1" y2="154.9" stroke="#80dedd" stroke-opacity="0.18" stroke-width="1"/>
<line x1="664.1" y1="105.3" x2="662.8" y2="99.8" stroke="#bea6b4" stroke-opacity="0.18" stroke-width="1"/>
<line x1="664.1" y1="105.3" x2="687.0" y2="90.8" stroke="#80dce3" stroke-opacity="0.18" stroke-width="1"/>
<line x1="662.8" y1="99.8" x2="687.0" y2="90.8" stroke="#bea6b4" stroke-opacity="0.18" stroke-width="1"/>
<line x1="689.2" y1="61.6" x2="687.0" y2="90.8" stroke="#80dce2" stroke-opacity="0.18" stroke-width="1"/>
<line x1="689.2" y1="61.6" x2="662.8" y2="99.8" stroke="#bea6b4" stroke-opacity="0.18" stroke-width="1"/>
<line x1="607.3" y1="77.1" x2="632.6" y2="123.1" stroke="#7fdae9" stroke-opacity="0.18" stroke-width="1"/>
<line x1="607.3" y1="77.1" x2="662.8" y2="99.8" stroke="#bda5b8" stroke-opacity="0.18" stroke-width="1"/>
<line x1="669.6" y1="198.8" x2="675.8" y2="173.8" stroke="#80dce4" stroke-opacity="0.18" stroke-width="1"/>
<line x1="669.6" y1="198.8" x2="692.9" y2="219.6" stroke="#80dce2" stroke-opacity="0.18" stroke-width="1"/>
<line x1="675.8" y1="173.8" x2="692.9" y2="219.6" stroke="#80dce2" stroke-opacity="0.18" stroke-width="1"/>
<line x1="675.8" y1="173.8" x2="659.7" y2="126.2" stroke="#80dce4" stroke-opacity="0.18" stroke-width="1"/>
<line x1="739.2" y1="159.4" x2="740.1" y2="154.9" stroke="#81dedc" stroke-opacity="0.18" stroke-width="1"/>
<line x1="739.2" y1="159.4" x2="762.8" y2="189.1" stroke="#81dedc" stroke-opacity="0.18" stroke-width="1"/>
<line x1="675.3" y1="230.8" x2="692.9" y2="219.6" stroke="#80dce2" stroke-opacity="0.18" stroke-width="1"/>
<line x1="675.3" y1="230.8" x2="704.8" y2="225.9" stroke="#80dce2" stroke-opacity="0.18" stroke-width="1"/>
<line x1="675.3" y1="230.8" x2="669.6" y2="198.8" stroke="#80dce4" stroke-opacity="0.18" stroke-width="1"/>
<line x1="692.9" y1="219.6" x2="704.8" y2="225.9" stroke="#80dce0" stroke-opacity="0.18" stroke-width="1"/>
<line x1="740.1" y1="154.9" x2="762.8" y2="189.1" stroke="#81dedb" stroke-opacity="0.18" stroke-width="1"/>
<line x1="776.4" y1="180.5" x2="762.8" y2="189.1" stroke="#81dfda" stroke-opacity="0.18" stroke-width="1"/>
<line x1="776.4" y1="180.5" x2="755.2" y2="202.5" stroke="#81dfda" stroke-opacity="0.18" stroke-width="1"/>
<line x1="755.2" y1="202.5" x2="762.8" y2="189.1" stroke="#81dfda" stroke-opacity="0.18" stroke-width="1"/>
<line x1="755.2" y1="202.5" x2="771.3" y2="227.4" stroke="#81dfda" stroke-opacity="0.18" stroke-width="1"/>
<line x1="771.3" y1="227.4" x2="762.8" y2="189.1" stroke="#81dfda" stroke-opacity="0.18" stroke-width="1"/>
<line x1="687.9" y1="261.3" x2="675.3" y2="230.8" stroke="#80dce2" stroke-opacity="0.18" stroke-width="1"/>
<line x1="687.9" y1="261.3" x2="704.8" y2="225.9" stroke="#80dce1" stroke-opacity="0.18" stroke-width="1"/>
<line x1="798.7" y1="137.6" x2="776.4" y2="180.5" stroke="#81e0d8" stroke-opacity="0.18" stroke-width="1"/>
<line x1="798.7" y1="137.6" x2="838.4" y2="108.2" stroke="#82e1d4" stroke-opacity="0.18" stroke-width="1"/>
<line x1="969.4" y1="114.9" x2="949.4" y2="115.9" stroke="#83e6c5" stroke-opacity="0.18" stroke-width="1"/>
<line x1="969.4" y1="114.9" x2="1001.7" y2="135.9" stroke="#84e8c2" stroke-opacity="0.18" stroke-width="1"/>
<line x1="902.3" y1="136.5" x2="915.4" y2="149.7" stroke="#82e4ca" stroke-opacity="0.18" stroke-width="1"/>
<line x1="902.3" y1="136.5" x2="896.1" y2="114.8" stroke="#82e4cc" stroke-opacity="0.18" stroke-width="1"/>
<line x1="896.1" y1="114.8" x2="915.4" y2="149.7" stroke="#82e4cb" stroke-opacity="0.18" stroke-width="1"/>
<line x1="896.1" y1="114.8" x2="856.8" y2="105.3" stroke="#82e3ce" stroke-opacity="0.18" stroke-width="1"/>
<line x1="838.4" y1="108.2" x2="856.8" y2="105.3" stroke="#82e2d1" stroke-opacity="0.18" stroke-width="1"/>
<line x1="838.4" y1="108.2" x2="853.8" y2="124.7" stroke="#82e2d1" stroke-opacity="0.18" stroke-width="1"/>
<line x1="838.4" y1="108.2" x2="857.6" y2="65.7" stroke="#82e2d1" stroke-opacity="0.18" stroke-width="1"/>
<line x1="964.2" y1="176.2" x2="993.0" y2="199.1" stroke="#84e6c4" stroke-opacity="0.18" stroke-width="1"/>
<line x1="964.2" y1="176.2" x2="969.6" y2="217.5" stroke="#83e6c4" stroke-opacity="0.18" stroke-width="1"/>
<line x1="857.6" y1="65.7" x2="856.8" y2="105.3" stroke="#82e2d0" stroke-opacity="0.18" stroke-width="1"/>
<line x1="857.6" y1="65.7" x2="853.8" y2="124.7" stroke="#82e2d0" stroke-opacity="0.18" stroke-width="1"/>
<line x1="978.1" y1="48.6" x2="969.4" y2="114.9" stroke="#83e7c4" stroke-opacity="0.18" stroke-width="1"/>
<line x1="978.1" y1="48.6" x2="949.4" y2="115.9" stroke="#83e6c4" stroke-opacity="0.18" stroke-width="1"/>
<line x1="978.1" y1="48.6" x2="1001.7" y2="135.9" stroke="#84e8c2" stroke-opacity="0.18" stroke-width="1"/>
<line x1="856.8" y1="105.3" x2="853.8" y2="124.7" stroke="#82e2d0" stroke-opacity="0.18" stroke-width="1"/>
<line x1="949.4" y1="115.9" x2="915.4" y2="149.7" stroke="#83e6c8" stroke-opacity="0.18" stroke-width="1"/>
<line x1="980.9" y1="220.3" x2="969.6" y2="217.5" stroke="#83e7c4" stroke-opacity="0.18" stroke-width="1"/>
<line x1="980.9" y1="220.3" x2="993.0" y2="199.1" stroke="#84e7c2" stroke-opacity="0.18" stroke-width="1"/>
<line x1="980.9" y1="220.3" x2="979.4" y2="257.0" stroke="#83e7c3" stroke-opacity="0.18" stroke-width="1"/>
<line x1="1015.1" y1="242.6" x2="1013.7" y2="241.9" stroke="#84e8c0" stroke-opacity="0.18" stroke-width="1"/>
<line x1="1015.1" y1="242.6" x2="979.4" y2="257.0" stroke="#84e8c1" stroke-opacity="0.18" stroke-width="1"/>
<line x1="1015.1" y1="242.6" x2="1044.1" y2="270.0" stroke="#84e8be" stroke-opacity="0.18" stroke-width="1"/>
<line x1="1024.7" y1="180.8" x2="1033.7" y2="205.1" stroke="#84e9be" stroke-opacity="0.18" stroke-width="1"/>
<line x1="1024.7" y1="180.8" x2="993.0" y2="199.1" stroke="#84e8c0" stroke-opacity="0.18" stroke-width="1"/>
<line x1="1024.7" y1="180.8" x2="1073.5" y2="180.5" stroke="#84eabc" stroke-opacity="0.18" stroke-width="1"/>
<line x1="979.4" y1="257.0" x2="976.9" y2="258.1" stroke="#83e7c3" stroke-opacity="0.18" stroke-width="1"/>
<line x1="1044.1" y1="270.0" x2="1013.7" y2="241.9" stroke="#84e8be" stroke-opacity="0.18" stroke-width="1"/>
<line x1="928.3" y1="229.8" x2="969.6" y2="217.5" stroke="#83e6c6" stroke-opacity="0.18" stroke-width="1"/>
<line x1="928.3" y1="229.8" x2="980.9" y2="220.3" stroke="#83e6c6" stroke-opacity="0.18" stroke-width="1"/>
<line x1="1013.7" y1="241.9" x2="979.4" y2="257.0" stroke="#84e8c2" stroke-opacity="0.18" stroke-width="1"/>
<line x1="1013.7" y1="241.9" x2="980.9" y2="220.3" stroke="#84e8c2" stroke-opacity="0.18" stroke-width="1"/>
<line x1="993.0" y1="199.1" x2="969.6" y2="217.5" stroke="#84e7c3" stroke-opacity="0.18" stroke-width="1"/>
<line x1="1033.7" y1="205.1" x2="1070.9" y2="209.3" stroke="#84eabc" stroke-opacity="0.18" stroke-width="1"/>
<line x1="1070.9" y1="209.3" x2="1094.2" y2="222.0" stroke="#84eab8" stroke-opacity="0.18" stroke-width="1"/>
<line x1="1070.9" y1="209.3" x2="1073.5" y2="180.5" stroke="#84eaba" stroke-opacity="0.18" stroke-width="1"/>
<line x1="976.9" y1="258.1" x2="980.9" y2="220.3" stroke="#83e7c3" stroke-opacity="0.18" stroke-width="1"/>
<line x1="1001.7" y1="135.9" x2="1024.7" y2="180.8" stroke="#84e8c0" stroke-opacity="0.18" stroke-width="1"/>
<line x1="1001.7" y1="135.9" x2="964.2" y2="176.2" stroke="#84e7c3" stroke-opacity="0.18" stroke-width="1"/>
<line x1="1094.2" y1="222.0" x2="1086.1" y2="178.2" stroke="#85ebb8" stroke-opacity="0.18" stroke-width="1"/>
<line x1="1130.1" y1="92.1" x2="1128.2" y2="138.2" stroke="#85ecb4" stroke-opacity="0.18" stroke-width="1"/>
<line x1="1130.1" y1="92.1" x2="1077.9" y2="121.4" stroke="#c0ae9c" stroke-opacity="0.18" stroke-width="1"/>
<line x1="1077.9" y1="121.4" x2="1073.1" y2="157.6" stroke="#c0ae9f" stroke-opacity="0.18" stroke-width="1"/>
<line x1="1077.9" y1="121.4" x2="1128.2" y2="138.2" stroke="#c0ae9c" stroke-opacity="0.18" stroke-width="1"/>
<line x1="1077.9" y1="121.4" x2="1086.1" y2="178.2" stroke="#c0ae9e" stroke-opacity="0.18" stroke-width="1"/>
<line x1="1073.1" y1="157.6" x2="1073.5" y2="180.5" stroke="#84eab9" stroke-opacity="0.18" stroke-width="1"/>
<line x1="1073.1" y1="157.6" x2="1086.1" y2="178.2" stroke="#84eab8" stroke-opacity="0.18" stroke-width="1"/>
<line x1="1073.5" y1="180.5" x2="1086.1" y2="178.2" stroke="#85eab8" stroke-opacity="0.18" stroke-width="1"/>
<line x1="1128.2" y1="138.2" x2="1176.0" y2="142.5" stroke="#86edb2" stroke-opacity="0.18" stroke-width="1"/>
<line x1="1176.0" y1="142.5" x2="1130.1" y2="92.1" stroke="#86edb1" stroke-opacity="0.18" stroke-width="1"/>
</g>
<circle cx="603.7" cy="137.1" r="8.0" fill="#fb7185" filter="url(#glow)"/>
<circle cx="568.9" cy="134.0" r="3.0" fill="#7fd8ee" fill-opacity="0.72"/>
<circle cx="587.0" cy="135.1" r="2.2" fill="#7fd8ed" fill-opacity="0.67"/>
<circle cx="530.3" cy="164.6" r="3.0" fill="#7ed6f2" fill-opacity="0.72"/>
<circle cx="615.3" cy="168.7" r="7.5" fill="#7fd9ea" fill-opacity="0.97"/>
<circle cx="518.5" cy="111.3" r="2.2" fill="#7ed6f4" fill-opacity="0.67"/>
<circle cx="547.4" cy="143.5" r="2.2" fill="#7ed7f1" fill-opacity="0.67"/>
<circle cx="536.9" cy="142.5" r="3.0" fill="#7ed7f2" fill-opacity="0.72"/>
<circle cx="502.1" cy="136.8" r="3.0" fill="#7ed5f5" fill-opacity="0.72"/>
<circle cx="551.1" cy="133.0" r="3.0" fill="#7ed7f0" fill-opacity="0.72"/>
<circle cx="659.7" cy="126.2" r="2.2" fill="#80dbe5" fill-opacity="0.67"/>
<circle cx="729.1" cy="99.9" r="4.0" fill="#80dede" fill-opacity="0.77"/>
<circle cx="664.1" cy="105.3" r="3.0" fill="#80dbe4" fill-opacity="0.72"/>
<circle cx="662.8" cy="99.8" r="8.0" fill="#fb7185" filter="url(#glow)"/>
<circle cx="689.2" cy="61.6" r="3.0" fill="#80dce2" fill-opacity="0.72"/>
<circle cx="607.3" cy="77.1" r="4.0" fill="#7fd9ea" fill-opacity="0.77"/>
<circle cx="669.6" cy="198.8" r="2.2" fill="#80dbe4" fill-opacity="0.67"/>
<circle cx="632.6" cy="123.1" r="2.2" fill="#7fdae8" fill-opacity="0.67"/>
<circle cx="687.0" cy="90.8" r="4.0" fill="#80dce2" fill-opacity="0.77"/>
<circle cx="675.8" cy="173.8" r="3.0" fill="#80dce3" fill-opacity="0.72"/>
<circle cx="739.2" cy="159.4" r="3.0" fill="#81dedd" fill-opacity="0.72"/>
<circle cx="675.3" cy="230.8" r="7.5" fill="#80dce3" fill-opacity="0.97"/>
<circle cx="692.9" cy="219.6" r="2.2" fill="#80dce1" fill-opacity="0.67"/>
<circle cx="740.1" cy="154.9" r="7.5" fill="#81dedc" fill-opacity="0.97"/>
<circle cx="776.4" cy="180.5" r="3.0" fill="#81dfd9" fill-opacity="0.72"/>
<circle cx="755.2" cy="202.5" r="3.0" fill="#81dfdb" fill-opacity="0.72"/>
<circle cx="771.3" cy="227.4" r="2.2" fill="#81dfd9" fill-opacity="0.67"/>
<circle cx="762.8" cy="189.1" r="2.2" fill="#81dfda" fill-opacity="0.67"/>
<circle cx="687.9" cy="261.3" r="2.2" fill="#80dce2" fill-opacity="0.67"/>
<circle cx="704.8" cy="225.9" r="5.5" fill="#80dde0" fill-opacity="0.86"/>
<circle cx="798.7" cy="137.6" r="2.2" fill="#81e0d6" fill-opacity="0.67"/>
<circle cx="969.4" cy="114.9" r="3.0" fill="#83e7c4" fill-opacity="0.72"/>
<circle cx="902.3" cy="136.5" r="2.2" fill="#82e4cb" fill-opacity="0.67"/>
<circle cx="896.1" cy="114.8" r="5.5" fill="#82e4cc" fill-opacity="0.86"/>
<circle cx="915.4" cy="149.7" r="2.2" fill="#83e5ca" fill-opacity="0.67"/>
<circle cx="838.4" cy="108.2" r="3.0" fill="#82e2d2" fill-opacity="0.72"/>
<circle cx="964.2" cy="176.2" r="7.5" fill="#83e6c5" fill-opacity="0.97"/>
<circle cx="857.6" cy="65.7" r="3.0" fill="#82e2d0" fill-opacity="0.72"/>
<circle cx="978.1" cy="48.6" r="4.0" fill="#83e7c3" fill-opacity="0.77"/>
<circle cx="856.8" cy="105.3" r="3.0" fill="#82e2d0" fill-opacity="0.72"/>
<circle cx="853.8" cy="124.7" r="2.2" fill="#82e2d0" fill-opacity="0.67"/>
<circle cx="949.4" cy="115.9" r="2.2" fill="#83e6c6" fill-opacity="0.67"/>
<circle cx="980.9" cy="220.3" r="2.2" fill="#83e7c3" fill-opacity="0.67"/>
<circle cx="1015.1" cy="242.6" r="2.2" fill="#84e8bf" fill-opacity="0.67"/>
<circle cx="1024.7" cy="180.8" r="2.2" fill="#84e9be" fill-opacity="0.67"/>
<circle cx="979.4" cy="257.0" r="3.0" fill="#83e7c3" fill-opacity="0.72"/>
<circle cx="1044.1" cy="270.0" r="7.5" fill="#84e9bc" fill-opacity="0.97"/>
<circle cx="928.3" cy="229.8" r="2.2" fill="#83e5c9" fill-opacity="0.67"/>
<circle cx="1013.7" cy="241.9" r="2.2" fill="#84e8c0" fill-opacity="0.67"/>
<circle cx="993.0" cy="199.1" r="2.2" fill="#84e7c2" fill-opacity="0.67"/>
<circle cx="1033.7" cy="205.1" r="2.2" fill="#84e9be" fill-opacity="0.67"/>
<circle cx="969.6" cy="217.5" r="3.0" fill="#83e7c4" fill-opacity="0.72"/>
<circle cx="1070.9" cy="209.3" r="4.0" fill="#84eaba" fill-opacity="0.77"/>
<circle cx="976.9" cy="258.1" r="2.2" fill="#83e7c3" fill-opacity="0.67"/>
<circle cx="1001.7" cy="135.9" r="3.0" fill="#84e8c1" fill-opacity="0.72"/>
<circle cx="1094.2" cy="222.0" r="7.5" fill="#85ebb7" fill-opacity="0.97"/>
<circle cx="1130.1" cy="92.1" r="4.0" fill="#85ecb3" fill-opacity="0.77"/>
<circle cx="1077.9" cy="121.4" r="8.2" fill="#fb7185" filter="url(#glow)"/>
<circle cx="1073.1" cy="157.6" r="2.2" fill="#84eab9" fill-opacity="0.67"/>
<circle cx="1073.5" cy="180.5" r="4.0" fill="#85eab9" fill-opacity="0.77"/>
<circle cx="1128.2" cy="138.2" r="5.5" fill="#85ecb4" fill-opacity="0.86"/>
<circle cx="1176.0" cy="142.5" r="3.0" fill="#86eeaf" fill-opacity="0.72"/>
<circle cx="1086.1" cy="178.2" r="2.2" fill="#85ebb8" fill-opacity="0.67"/>
<rect width="1200" height="300" rx="20" fill="url(#scrim)"/>
<g transform="translate(66,60)">
<circle cx="6" cy="6" r="5" fill="#86efac"/>
<text x="22" y="10" class="m" font-size="13" letter-spacing="2.5" fill="#8b949e">OPEN&#160;TO&#160;OPPORTUNITIES</text>
</g>
<text x="64" y="158" class="s" font-size="68" font-weight="800" fill="url(#name)">Jiwon&#160;Shin</text>
<text x="66" y="200" class="s" font-size="22" font-weight="500" fill="#c9d1d9">Full-stack <tspan fill="#7dd3fc" font-weight="700">&#215;</tspan> AI / ML Product Engineer</text>
<text x="66" y="240" class="m" font-size="15" fill="#8b949e"><tspan fill="#7dd3fc">&gt;</tspan> recommendation &#183; location-based &#183; local-commerce AI</text>
<rect x="1" y="1" width="1198" height="298" rx="19" fill="none" stroke="#ffffff" stroke-opacity="0.08"/>
</svg>